<?xml version="1.0" standalone="no"?>
<!DOCTYPE svg PUBLIC "-//W3C//DTD SVG 20010904//EN"
 "http://www.w3.org/TR/2001/REC-SVG-20010904/DTD/svg10.dtd">
<svg version="1.0" xmlns="http://www.w3.org/2000/svg"
 width="700.000000pt" height="700.000000pt" viewBox="0 0 700.000000 700.000000"
 preserveAspectRatio="xMidYMid meet">
<metadata>
Created by potrace 1.14, written by Peter Selinger 2001-2017
</metadata>
<g transform="translate(0.000000,700.000000) scale(0.100000,-0.100000)"
fill="#000000" stroke="none">
<path d="M640 6538 c0 -3 -11 -61 -26 -129 -14 -68 -27 -140 -30 -159 -2 -19
-6 -46 -9 -60 -71 -342 -77 -663 -19 -899 56 -226 172 -452 357 -698 38 -51
66 -97 62 -103 -12 -19 -76 -212 -95 -285 -66 -259 -92 -462 -91 -724 1 -144
3 -173 15 -281 13 -106 17 -136 33 -210 8 -41 17 -88 20 -105 10 -60 83 -289
129 -403 50 -124 119 -262 188 -375 22 -37 46 -76 51 -85 64 -111 222 -302
380 -458 429 -424 975 -685 1595 -761 83 -10 491 -10 592 0 738 74 1452 486
1894 1092 69 95 134 192 134 201 0 4 6 15 14 23 21 23 149 282 185 372 28 73
87 246 96 286 2 10 15 65 29 123 28 118 31 138 46 265 6 50 13 106 16 125 15
125 0 483 -26 625 -5 28 -12 66 -14 85 -18 118 -77 325 -134 472 l-29 77 40
53 c201 266 328 540 371 805 14 85 16 458 3 508 -2 11 -8 47 -12 80 -10 81
-11 87 -30 190 -9 50 -19 104 -22 120 -27 158 -61 278 -64 224 -1 -20 -3 -31
-39 -164 -129 -480 -278 -697 -574 -836 -73 -34 -241 -89 -270 -89 -6 0 -40
28 -76 62 -217 204 -533 402 -828 519 -88 35 -276 98 -314 104 -14 3 -64 14
-110 25 -82 19 -246 44 -363 55 -64 6 -357 7 -415 1 -100 -9 -171 -18 -225
-27 -92 -15 -98 -17 -125 -23 -14 -3 -36 -8 -50 -10 -83 -15 -294 -82 -425
-134 -177 -71 -452 -225 -580 -324 -80 -62 -211 -172 -252 -211 l-52 -50 -58
13 c-32 7 -101 28 -155 46 -374 130 -555 373 -693 929 -15 61 -31 114 -36 120
-5 5 -9 6 -9 3z m2496 -611 c-258 -238 -495 -492 -655 -704 -35 -46 -70 -83
-79 -83 -9 0 -145 32 -302 71 -157 39 -298 73 -314 75 -72 13 -72 15 -4 80
255 239 591 436 933 547 77 25 216 62 266 72 60 12 138 25 184 31 28 3 52 8
54 10 2 2 7 1 10 -2 3 -3 -39 -47 -93 -97z m754 79 c381 -59 718 -192 1040
-410 90 -62 84 -56 195 -149 92 -77 175 -157 162 -157 -4 0 -101 -25 -215 -56
-114 -31 -216 -57 -227 -59 -11 -1 -38 -7 -60 -13 -22 -6 -51 -13 -65 -16 -14
-2 -47 -9 -74 -15 -27 -7 -50 -10 -51 -9 -1 2 -33 44 -70 93 -185 244 -456
533 -722 767 -38 34 -47 52 -20 43 7 -3 55 -11 107 -19z m-479 -542 l0 -459
-63 1 c-80 1 -289 14 -297 18 -3 2 -35 6 -71 10 -76 7 -362 54 -368 61 -4 4
78 118 98 135 3 3 18 21 34 40 130 160 443 476 611 617 27 23 51 40 53 39 2
-2 3 -210 3 -462z m311 356 c145 -131 375 -364 479 -485 120 -141 203 -245
197 -250 -11 -11 -198 -36 -518 -70 -25 -3 -100 -7 -167 -10 l-123 -6 0 28
c-1 73 -1 880 0 891 0 18 18 4 132 -98z m-2032 -691 c47 -11 94 -22 106 -25
11 -2 120 -28 242 -59 121 -30 228 -55 236 -55 32 0 25 -23 -37 -127 -80 -136
-134 -242 -185 -363 -57 -136 -124 -339 -139 -420 -2 -13 -11 -55 -19 -93 -8
-37 -14 -70 -14 -72 0 -1 -18 -25 -40 -51 -22 -27 -50 -72 -62 -101 l-21 -52
-395 -1 -394 0 6 42 c3 24 9 66 12 93 3 28 12 82 19 120 26 129 32 154 72 285
74 243 194 491 341 700 81 116 152 200 170 200 9 0 55 -9 102 -21z m3802 -56
c118 -149 229 -332 320 -529 70 -152 156 -417 173 -534 4 -24 8 -47 10 -50 4
-7 12 -62 20 -135 4 -33 9 -68 11 -77 6 -21 52 -19 -418 -21 l-368 -2 -30 60
c-16 33 -43 75 -60 93 -17 18 -34 45 -36 60 -54 315 -184 653 -364 946 -22 37
-40 70 -40 75 0 5 17 12 38 15 107 19 627 158 640 171 18 18 48 -3 104 -72z
m-2802 -173 c153 -26 156 -26 255 -39 162 -21 245 -27 398 -32 65 -2 67 -3 68
-28 3 -141 -1 -1074 -5 -1078 -3 -3 -181 -6 -395 -7 l-391 -1 -30 62 c-57 116
-164 207 -282 239 -56 16 -171 21 -207 9 -23 -7 -25 -1 -12 41 5 16 14 49 21
74 66 234 188 498 338 731 l42 67 38 -9 c20 -4 93 -17 162 -29z m1874 -47
c146 -224 264 -488 334 -748 6 -22 14 -51 18 -64 4 -16 3 -21 -5 -17 -19 12
-164 7 -219 -8 -115 -31 -220 -118 -273 -225 l-34 -69 -397 -1 -398 -1 0 47
c-1 68 -1 925 0 999 l0 60 78 2 c134 4 295 16 422 32 41 5 95 12 120 15 25 3
52 7 60 10 8 2 38 7 65 10 28 4 68 10 90 15 87 17 91 16 139 -57z m-1157
-1316 c7 -7 5 -1318 -2 -1325 -3 -3 -31 -7 -63 -8 -76 -3 -225 -13 -265 -19
-18 -2 -59 -7 -92 -10 -75 -7 -253 -35 -325 -50 -14 -3 -41 -8 -60 -11 -19 -3
-41 -7 -47 -9 -33 -11 -234 338 -340 590 -58 137 -149 438 -137 456 2 4 19 3
37 -2 75 -20 216 5 301 55 98 57 193 191 211 296 l7 40 241 2 c307 4 527 1
534 -5z m970 -44 c35 -152 145 -275 293 -329 52 -18 170 -26 223 -14 36 8 37
7 31 -19 -54 -238 -127 -437 -239 -656 -56 -109 -168 -299 -194 -328 -17 -21
-7 -21 -246 12 -191 27 -305 37 -515 47 -74 3 -136 7 -138 9 -2 2 -4 1100 -2
1287 0 26 5 37 17 40 9 2 183 3 387 4 l371 0 12 -53z m1656 -75 c-5 -315 -87
-672 -224 -968 -87 -189 -232 -426 -317 -519 l-37 -41 -175 50 c-96 28 -184
52 -195 54 -11 3 -85 20 -165 40 -80 19 -157 37 -170 39 -35 7 -80 19 -80 21
0 1 30 52 66 112 153 252 276 548 343 819 20 81 24 101 37 188 4 30 18 63 38
90 58 77 89 144 100 212 2 17 5 31 5 33 1 1 175 1 389 0 l387 -3 -2 -127z
m-4277 63 c18 -70 39 -113 86 -175 21 -28 38 -60 39 -71 1 -39 24 -154 51
-255 58 -221 168 -489 283 -690 15 -25 35 -61 46 -80 11 -19 28 -48 39 -65 11
-16 26 -42 35 -57 18 -31 43 -21 -210 -82 -82 -19 -206 -49 -275 -65 -273 -66
-294 -69 -309 -53 -8 8 -42 51 -75 96 -235 311 -417 740 -470 1111 -4 23 -8
50 -10 60 -14 71 -30 361 -21 375 2 3 177 5 390 5 l388 0 13 -54z m2044 -1456
c234 -11 560 -49 560 -64 0 -9 -189 -242 -266 -330 -91 -103 -494 -505 -500
-498 -3 3 -6 206 -7 451 -2 485 -6 455 53 450 14 -1 86 -5 160 -9z m-390 -37
c4 -544 4 -858 -1 -858 -19 0 -354 335 -510 510 -70 79 -227 271 -242 296 -4
7 31 17 106 29 62 10 119 19 127 20 17 3 101 14 145 20 17 2 66 6 110 10 44 4
81 8 82 9 1 1 42 2 92 4 l91 3 0 -43z m1235 -73 c90 -17 284 -61 330 -74 17
-5 103 -28 191 -52 140 -37 160 -45 151 -58 -19 -30 -202 -190 -297 -261 -297
-222 -643 -379 -1005 -456 -44 -9 -184 -30 -269 -39 -66 -8 -67 -2 -7 49 69
57 426 422 512 521 106 124 200 241 259 322 25 34 47 63 50 63 3 0 41 -7 85
-15z m-2133 -77 c71 -96 206 -260 302 -368 73 -82 477 -480 486 -480 6 0 10
-5 10 -11 0 -11 -42 -8 -185 12 -82 11 -109 16 -133 23 -9 3 -31 8 -49 11 -17
3 -85 20 -150 39 -386 111 -741 314 -1035 593 -59 56 -69 73 -44 73 8 0 142
31 298 69 156 39 297 72 313 75 17 3 44 10 60 15 65 20 78 15 127 -51z"/>
</g>
</svg>
